<svg width="14" height="14" viewBox="0 0 14 14" fill="none" xmlns="http://www.w3.org/2000/svg">
<path d="M12.25 0.25C13.0784 0.25 13.75 0.921573 13.75 1.75V4.75C13.75 5.57843 13.0784 6.25 12.25 6.25L1.75 6.25C0.921572 6.25 0.25 5.57843 0.25 4.75L0.25 1.75C0.25 0.921573 0.921572 0.25 1.75 0.25L12.25 0.25ZM12.25 4.75V1.75L1.75 1.75L1.75 4.75L12.25 4.75Z" fill="#00EAC7"/>
<path d="M12.25 7.75C13.0784 7.75 13.75 8.42157 13.75 9.25V12.25C13.75 13.0784 13.0784 13.75 12.25 13.75H1.75C0.921572 13.75 0.25 13.0784 0.25 12.25L0.25 9.25C0.25 8.42157 0.921572 7.75 1.75 7.75L12.25 7.75ZM12.25 12.25V9.25L1.75 9.25L1.75 12.25H12.25Z" fill="#00EAC7"/>
</svg>
