<svg width="26" height="26" viewBox="0 0 26 26" fill="none" xmlns="http://www.w3.org/2000/svg">
<path d="M14.3352 0V2.6C20.0823 3.302 24.1538 8.489 23.4469 14.196C23.1579 16.4957 22.105 18.634 20.4547 20.2728C18.8044 21.9115 16.651 22.957 14.3352 23.244V25.844C21.5355 25.064 26.7066 18.642 25.9212 11.505C25.2404 5.447 20.4358 0.65 14.3352 0ZM11.7169 0C9.15095 0.234 6.72903 1.235 4.73912 2.86L6.6112 4.862C8.07745 3.692 9.8448 2.938 11.7169 2.678V0.0779999M2.89322 4.771C1.25113 6.74044 0.243108 9.15455 0 11.7H2.6183C2.86704 9.854 3.60016 8.099 4.7653 6.63L2.89322 4.771ZM0.0130915 14.3C0.274921 16.848 1.28297 19.253 2.90631 21.229L4.7653 19.37C3.60923 17.9005 2.87221 16.1494 2.63139 14.3H0.0130915ZM6.55884 21.281L4.73912 23.062C6.72219 24.7035 9.15 25.7257 11.7169 26V23.4C9.85449 23.1609 8.09107 22.429 6.6112 21.281H6.55884Z" fill="#00EAC7" fill-opacity="0.1"/>
<path d="M14.3352 0V2.6C20.0823 3.302 24.1538 8.489 23.4469 14.196C23.1579 16.4957 22.105 18.634 20.4547 20.2728C18.8044 21.9115 16.651 22.957 14.3352 23.244V25.844C21.5355 25.064 26.7066 18.642 25.9212 11.505C25.2404 5.447 20.4358 0.65 14.3352 0ZM11.7169 0C9.15095 0.234 6.72903 1.235 4.73912 2.86L6.6112 4.862C8.07745 3.692 9.8448 2.938 11.7169 2.678V0.0779999M2.89322 4.771C1.25113 6.74044 0.243108 9.15455 0 11.7H2.6183C2.86704 9.854 3.60016 8.099 4.7653 6.63L2.89322 4.771ZM0.0130915 14.3C0.274921 16.848 1.28297 19.253 2.90631 21.229L4.7653 19.37C3.60923 17.9005 2.87221 16.1494 2.63139 14.3H0.0130915ZM6.55884 21.281L4.73912 23.062C6.72219 24.7035 9.15 25.7257 11.7169 26V23.4C9.85449 23.1609 8.09107 22.429 6.6112 21.281H6.55884Z" fill="#00EAC7" fill-opacity="0.1"/>
<path d="M11.8957 18L7 13.2599L8.22393 12.0748L11.8957 15.6299L19.7761 8L21 9.18503L11.8957 18Z" fill="white"/>
</svg>
