<svg width="16" height="16" viewBox="0 0 16 16" fill="none" xmlns="http://www.w3.org/2000/svg">
<g opacity="0.5">
<path d="M2.66675 4.66667C2.66675 4.29848 2.96522 4 3.33341 4H4.00008C4.36827 4 4.66675 4.29848 4.66675 4.66667C4.66675 5.03486 4.36827 5.33333 4.00008 5.33333H3.33341C2.96522 5.33333 2.66675 5.03486 2.66675 4.66667ZM6.00008 4.66667C6.00008 4.29848 6.29856 4 6.66675 4H12.6667C13.0349 4 13.3334 4.29848 13.3334 4.66667C13.3334 5.03486 13.0349 5.33333 12.6667 5.33333H6.66675C6.29856 5.33333 6.00008 5.03486 6.00008 4.66667ZM2.66675 8C2.66675 7.63181 2.96522 7.33333 3.33341 7.33333H4.00008C4.36827 7.33333 4.66675 7.63181 4.66675 8C4.66675 8.36819 4.36827 8.66667 4.00008 8.66667H3.33341C2.96522 8.66667 2.66675 8.36819 2.66675 8ZM6.00008 8C6.00008 7.63181 6.29856 7.33333 6.66675 7.33333H12.6667C13.0349 7.33333 13.3334 7.63181 13.3334 8C13.3334 8.36819 13.0349 8.66667 12.6667 8.66667H6.66675C6.29856 8.66667 6.00008 8.36819 6.00008 8ZM2.66675 11.3333C2.66675 10.9651 2.96522 10.6667 3.33341 10.6667H4.00008C4.36827 10.6667 4.66675 10.9651 4.66675 11.3333C4.66675 11.7015 4.36827 12 4.00008 12H3.33341C2.96522 12 2.66675 11.7015 2.66675 11.3333ZM6.00008 11.3333C6.00008 10.9651 6.29856 10.6667 6.66675 10.6667H12.6667C13.0349 10.6667 13.3334 10.9651 13.3334 11.3333C13.3334 11.7015 13.0349 12 12.6667 12H6.66675C6.29856 12 6.00008 11.7015 6.00008 11.3333Z" fill="white"/>
</g>
</svg>
