<svg width="22" height="22" viewBox="0 0 22 22" fill="none" xmlns="http://www.w3.org/2000/svg">
<g opacity="0.5">
<path d="M9.16683 3.66671C6.12926 3.66671 3.66683 6.12914 3.66683 9.16671C3.66683 12.2043 6.12926 14.6667 9.16683 14.6667C12.2044 14.6667 14.6668 12.2043 14.6668 9.16671C14.6668 6.12914 12.2044 3.66671 9.16683 3.66671ZM1.8335 9.16671C1.8335 5.11662 5.11674 1.83337 9.16683 1.83337C13.2169 1.83337 16.5002 5.11662 16.5002 9.16671C16.5002 10.8614 15.9253 12.4218 14.96 13.6635L19.8983 18.6019C20.2563 18.9598 20.2563 19.5402 19.8983 19.8982C19.5404 20.2562 18.96 20.2562 18.602 19.8982L13.6637 14.9599C12.4219 15.9252 10.8615 16.5 9.16683 16.5C5.11674 16.5 1.8335 13.2168 1.8335 9.16671Z" fill="white"/>
</g>
</svg>
