<svg width="22" height="22" viewBox="0 0 22 22" fill="none" xmlns="http://www.w3.org/2000/svg">
<g opacity="0.5">
<path d="M8.24984 4.58333C7.74358 4.58333 7.33317 4.99374 7.33317 5.5C7.33317 6.00626 7.74358 6.41667 8.24984 6.41667C8.7561 6.41667 9.1665 6.00626 9.1665 5.5C9.1665 4.99374 8.7561 4.58333 8.24984 4.58333ZM5.65632 4.58333C6.03383 3.51524 7.05247 2.75 8.24984 2.75C9.4472 2.75 10.4658 3.51524 10.8434 4.58333H17.4165C17.9228 4.58333 18.3332 4.99374 18.3332 5.5C18.3332 6.00626 17.9228 6.41667 17.4165 6.41667H10.8434C10.4658 7.48476 9.4472 8.25 8.24984 8.25C7.05247 8.25 6.03383 7.48476 5.65632 6.41667H4.58317C4.07691 6.41667 3.6665 6.00626 3.6665 5.5C3.6665 4.99374 4.07691 4.58333 4.58317 4.58333H5.65632ZM13.7498 10.0833C13.2436 10.0833 12.8332 10.4937 12.8332 11C12.8332 11.5063 13.2436 11.9167 13.7498 11.9167C14.2561 11.9167 14.6665 11.5063 14.6665 11C14.6665 10.4937 14.2561 10.0833 13.7498 10.0833ZM11.1563 10.0833C11.5338 9.01524 12.5525 8.25 13.7498 8.25C14.9472 8.25 15.9658 9.01524 16.3434 10.0833H17.4165C17.9228 10.0833 18.3332 10.4937 18.3332 11C18.3332 11.5063 17.9228 11.9167 17.4165 11.9167H16.3434C15.9658 12.9848 14.9472 13.75 13.7498 13.75C12.5525 13.75 11.5338 12.9848 11.1563 11.9167H4.58317C4.07691 11.9167 3.6665 11.5063 3.6665 11C3.6665 10.4937 4.07691 10.0833 4.58317 10.0833H11.1563ZM8.24984 15.5833C7.74358 15.5833 7.33317 15.9937 7.33317 16.5C7.33317 17.0063 7.74358 17.4167 8.24984 17.4167C8.7561 17.4167 9.1665 17.0063 9.1665 16.5C9.1665 15.9937 8.7561 15.5833 8.24984 15.5833ZM5.65632 15.5833C6.03383 14.5152 7.05247 13.75 8.24984 13.75C9.4472 13.75 10.4658 14.5152 10.8434 15.5833H17.4165C17.9228 15.5833 18.3332 15.9937 18.3332 16.5C18.3332 17.0063 17.9228 17.4167 17.4165 17.4167H10.8434C10.4658 18.4848 9.4472 19.25 8.24984 19.25C7.05247 19.25 6.03383 18.4848 5.65632 17.4167H4.58317C4.07691 17.4167 3.6665 17.0063 3.6665 16.5C3.6665 15.9937 4.07691 15.5833 4.58317 15.5833H5.65632Z" fill="white"/>
</g>
</svg>
